<svg width="88" height="88" viewBox="0 0 88 88" fill="none" xmlns="http://www.w3.org/2000/svg">
<g id="Object">
<mask id="mask0_2_1711" style="mask-type:luminance" maskUnits="userSpaceOnUse" x="0" y="0" width="88" height="88">
<rect id="Rectangle Copy 4" width="88" height="88" rx="8" fill="white"/>
</mask>
<g mask="url(#mask0_2_1711)">
<g id="11">
<path id="Shape" fill-rule="evenodd" clip-rule="evenodd" d="M23.5493 57.1213C23.548 55.0773 24.3307 53.0213 25.8893 51.464L24.9467 50.5213C23.6493 49.224 22.9987 47.508 23 45.8067C22.9987 44.1053 23.6493 42.3893 24.9467 41.0933L41.0933 24.9467C42.392 23.648 44.1093 22.9987 45.8107 23C47.512 22.9987 49.2253 23.6507 50.5213 24.9467L51.464 25.8893C53.0227 24.3307 55.0787 23.548 57.1213 23.5493C59.1653 23.548 61.2213 24.3307 62.7787 25.8893C64.3373 27.448 65.12 29.504 65.1187 31.5467C65.12 33.5907 64.3373 35.6467 62.7787 37.204L63.7213 38.1467C65.0173 39.4413 65.6693 41.1547 65.668 42.856C65.6693 44.5573 65.0213 46.276 63.7213 47.5747L47.5747 63.7213C46.2787 65.0187 44.5627 65.6693 42.8613 65.668C41.1587 65.6693 39.444 65.0187 38.1467 63.7213L37.204 62.7787C35.6453 64.3373 33.5893 65.12 31.5467 65.1187C29.5027 65.12 27.4467 64.3373 25.8893 62.7787C24.3307 61.22 23.548 59.164 23.5493 57.1213ZM61.8347 45.688C62.612 44.9107 62.9987 43.8907 63 42.8547C62.9987 41.8253 62.612 40.808 61.836 40.0307L60.8933 39.088L39.0893 60.892L40.032 61.8347C40.8093 62.612 41.828 62.9987 42.86 63C43.892 62.9987 44.9107 62.612 45.688 61.8347L61.8347 45.688ZM52.4067 28.7173L53.3493 27.7747C54.3907 26.7333 55.7493 26.2173 57.12 26.216C58.492 26.2173 59.8493 26.7333 60.8907 27.7747C61.932 28.816 62.448 30.1747 62.4493 31.5453C62.448 32.916 61.9307 34.2747 60.8907 35.3173L59.948 36.26L36.26 59.9493L35.3173 60.892C34.276 61.9333 32.9173 62.4493 31.5467 62.4507C30.1747 62.4493 28.8173 61.932 27.776 60.892C26.7347 59.8507 26.2187 58.492 26.2173 57.1213C26.2187 55.7493 26.736 54.392 27.776 53.3507L28.7187 52.408L52.4067 28.7173ZM42.9787 26.832L26.832 42.9787C26.0547 43.756 25.668 44.7747 25.6667 45.8067C25.668 46.84 26.0547 47.8587 26.832 48.636L27.7747 49.5787L49.5787 27.7747L48.636 26.832C47.8587 26.0547 46.8413 25.668 45.8107 25.6667C44.776 25.668 43.756 26.0547 42.9787 26.832Z" fill="white"/>
<path id="Path" fill-rule="evenodd" clip-rule="evenodd" d="M31.268 58.8907C32.004 58.8907 32.6013 58.2934 32.6013 57.5574C32.6013 57.4094 32.5613 57.2747 32.5173 57.1414L32.5333 57.1361L32.444 56.5987C32.444 56.1641 32.6253 55.7561 32.932 55.4481C33.24 55.1414 33.648 54.9601 34.0827 54.9601L34.6187 55.0507H34.62C35.0773 55.2027 35.544 55.2774 35.9987 55.2761C38.372 55.2614 40.2893 53.3454 40.304 50.9721C40.304 50.5174 40.2307 50.0507 40.0773 49.5921L39.988 49.0561C39.988 48.6214 40.1693 48.2134 40.476 47.9054C40.784 47.5987 41.192 47.4174 41.6267 47.4174L42.1627 47.5067H42.164C42.6213 47.6587 43.088 47.7334 43.5427 47.7334C45.916 47.7187 47.8333 45.8027 47.848 43.4281C47.848 42.9734 47.7747 42.5067 47.6213 42.0494L47.532 41.5121C47.532 41.0774 47.7133 40.6694 48.02 40.3614C48.328 40.0547 48.736 39.8734 49.1707 39.8734L49.7067 39.9641H49.708C50.1653 40.1161 50.632 40.1907 51.0867 40.1907C53.46 40.1761 55.3773 38.2601 55.392 35.8867C55.392 35.4321 55.3187 34.9654 55.1653 34.5081L55.076 33.9721C55.076 33.5374 55.2573 33.1294 55.564 32.8214C55.8667 32.5147 56.2747 32.3334 56.7093 32.3334L57.2453 32.4227L57.6667 32.4921C58.4027 32.4921 59 31.8947 59 31.1587C59 30.5694 58.612 30.0867 58.0827 29.9094L58.088 29.8934C57.6307 29.7401 57.164 29.6667 56.7093 29.6667C54.336 29.6814 52.4187 31.5974 52.404 33.9721C52.404 34.4267 52.4773 34.8934 52.6307 35.3521L52.72 35.8881C52.72 36.3227 52.5387 36.7307 52.232 37.0387C51.924 37.3454 51.516 37.5267 51.0813 37.5267L50.544 37.4374C50.0867 37.2854 49.62 37.2107 49.1653 37.2107C46.792 37.2254 44.8747 39.1414 44.86 41.5161C44.86 41.9707 44.9333 42.4374 45.0867 42.8947L45.176 43.4307C45.176 43.8654 44.9947 44.2734 44.688 44.5814C44.38 44.8881 43.972 45.0694 43.5373 45.0694L43 44.9801C42.5427 44.8281 42.076 44.7534 41.6213 44.7534C39.248 44.7681 37.3307 46.6841 37.316 49.0587C37.316 49.5134 37.3893 49.9801 37.5427 50.4387L37.632 50.9747C37.632 51.4094 37.4507 51.8174 37.144 52.1254C36.836 52.4321 36.428 52.6134 35.9933 52.6134L35.46 52.5201C35.0027 52.3681 34.536 52.2934 34.0813 52.2934C31.708 52.3081 29.7907 54.2241 29.776 56.5987C29.776 57.0534 29.8493 57.5201 30.0027 57.9787C30.1853 58.5241 30.692 58.8907 31.268 58.8907Z" fill="white"/>
</g>
</g>
</g>
</svg>
