<svg width="88" height="88" viewBox="0 0 88 88" fill="none" xmlns="http://www.w3.org/2000/svg">
<g id="Object">
<mask id="mask0_2_1735" style="mask-type:luminance" maskUnits="userSpaceOnUse" x="0" y="0" width="88" height="88">
<rect id="Rectangle Copy 5" width="88" height="88" rx="8" fill="white"/>
</mask>
<g mask="url(#mask0_2_1735)">
<g id="8">
<path id="Shape" fill-rule="evenodd" clip-rule="evenodd" d="M27.204 37.0518C26.8505 37.2873 26.4881 37.5287 26.1264 37.5279C25.0195 37.5292 23.903 37.0769 23.0931 36.1982C22.3644 35.409 21.9986 34.397 22 33.4001C21.9986 32.2932 22.4483 31.174 23.3269 30.3641C29.128 25.0099 36.5709 22.3272 44 22.3286C51.4305 22.3272 58.872 24.9879 64.6731 30.3421C65.5518 31.152 66.0014 32.2396 66 33.3451C66.0014 34.342 65.6356 35.2962 64.9069 36.0869C64.097 36.9627 62.9819 37.2996 61.875 37.2982C61.4411 37.2982 61.0072 37.0859 60.5883 36.8808C60.4616 36.8188 60.3362 36.7575 60.2126 36.7029L47.7758 62.9117H47.773C47.0676 64.2867 45.4974 65.3881 44.0014 65.373C42.5054 65.3881 40.9351 64.2867 40.2298 62.9117H40.227L27.7901 36.7042C27.5986 36.7888 27.4027 36.9194 27.204 37.0518L27.204 37.0518ZM46.75 52.5387C46.7528 53.7982 47.6135 54.8542 48.774 55.1774L51.0538 50.2892C50.6096 49.9799 50.0816 49.7887 49.5 49.7887C47.9875 49.7915 46.7528 51.0262 46.75 52.5387ZM52.2198 47.7895C51.414 47.3261 50.4941 47.0374 49.5 47.0374C46.4626 47.0401 44.0028 49.5014 44 52.5374C44.0014 54.9051 45.507 56.9057 47.6066 57.6799L45.2815 62.6642L45.2636 62.7041C45.0079 63.2844 44.5431 63.5222 44 63.5374C43.4569 63.5222 42.9921 63.2844 42.7364 62.7041L42.7185 62.6642L30.0465 35.4929C34.0863 32.2341 39.0321 30.5827 44 30.5827C48.9679 30.5841 53.9124 32.2341 57.9549 35.4942L52.2198 47.7895ZM44 25.0924C37.2254 25.0937 30.4618 27.5275 25.1928 32.3922C24.8958 32.6659 24.7514 33.0275 24.75 33.4029C24.7514 33.7411 24.8683 34.067 25.1144 34.3351C25.3894 34.6321 25.751 34.7765 26.1264 34.7779C26.4633 34.7765 26.7878 34.6596 27.0573 34.4121C27.0997 34.3732 27.1444 34.3375 27.1892 34.3018C27.2314 34.2681 27.2737 34.2343 27.3144 34.1976C27.3308 34.1789 27.3511 34.1637 27.3715 34.1486C27.387 34.137 27.4024 34.1255 27.4161 34.1124C32.1186 29.9351 38.06 27.8314 44 27.8327C49.94 27.8314 55.8828 29.9351 60.5839 34.111C60.5974 34.1234 60.6121 34.1344 60.6268 34.1454C60.6478 34.1612 60.6686 34.1768 60.6856 34.1962C60.7262 34.2328 60.7681 34.2666 60.8099 34.3002C60.8544 34.336 60.8988 34.3717 60.9414 34.4107C61.2109 34.6582 61.5381 34.7751 61.8736 34.7765C62.249 34.7751 62.612 34.6307 62.8856 34.3351C63.1318 34.067 63.2486 33.7411 63.25 33.4029C63.2486 33.0275 63.1043 32.6659 62.8073 32.3922C57.5383 27.5275 50.7746 25.0937 44 25.0924Z" fill="white"/>
<path id="Shape_2" fill-rule="evenodd" clip-rule="evenodd" d="M41.25 44.2888C38.2126 44.2861 35.7527 41.8248 35.75 38.7888C35.7527 35.7514 38.214 33.2902 41.25 33.2888C44.2874 33.2916 46.7472 35.7528 46.75 38.7888C46.7472 41.8248 44.286 44.2861 41.25 44.2888ZM41.25 41.5388C42.7625 41.5361 43.9972 40.3013 44 38.7888C43.9972 37.2749 42.7625 36.0416 41.25 36.0388C39.7375 36.0416 38.5027 37.2763 38.5 38.7888C38.5027 40.3013 39.7375 41.5361 41.25 41.5388Z" fill="white"/>
</g>
</g>
</g>
</svg>
