<svg width="12" height="12" viewBox="0 0 12 12" fill="none" xmlns="http://www.w3.org/2000/svg">
<g id="_Icons / 7 Rating">
<path id="7 Rating" fill-rule="evenodd" clip-rule="evenodd" d="M6.55156 0.829806L7.95528 3.79378L10.8298 4.09937C11.1188 4.13967 11.3577 4.34491 11.4411 4.62453C11.5245 4.90414 11.4371 5.20672 11.2174 5.39875L8.93168 7.28446L9.63976 10.4522C9.69544 10.7381 9.57945 11.0303 9.3428 11.2001C9.10615 11.37 8.79223 11.3865 8.53913 11.2422L5.88572 9.62981L3.23479 11.2422C2.98169 11.3865 2.66777 11.37 2.43112 11.2001C2.19447 11.0303 2.07848 10.7381 2.13417 10.4522L2.84224 7.28446L0.554041 5.39875C0.334227 5.20638 0.247045 4.90334 0.33103 4.62357C0.415014 4.3438 0.654683 4.13887 0.944103 4.09937L3.81864 3.79378L5.22236 0.829806C5.34942 0.579544 5.60629 0.421875 5.88696 0.421875C6.16763 0.421875 6.4245 0.579544 6.55156 0.829806Z" fill="#FFCC00"/>
</g>
</svg>
